<svg width="411" height="331" xmlns="http://www.w3.org/2000/svg" xmlns:xlink="http://www.w3.org/1999/xlink" overflow="hidden"><defs><clipPath id="clip0"><rect x="0" y="0" width="411" height="331"/></clipPath></defs><g clip-path="url(#clip0)"><path d="M203.666 107.023 58.393 226.785C58.393 226.954 58.3505 227.202 58.2656 227.541 58.1824 227.877 58.1381 228.122 58.1381 228.295L58.1381 349.567C58.1381 353.945 59.739 357.74 62.9398 360.936 66.1397 364.133 69.929 365.742 74.3085 365.742L171.323 365.742 171.323 268.721 236.009 268.721 236.009 365.745 333.023 365.745C337.402 365.745 341.196 364.14 344.392 360.936 347.593 357.744 349.199 353.946 349.199 349.567L349.199 228.295C349.199 227.623 349.107 227.115 348.944 226.785L203.666 107.023Z" fill="#FFFFFF" transform="matrix(1.001 0 0 1 0.539734 -35.0087)"/><path d="M404.521 199.497 349.193 153.514 349.193 50.4313C349.193 48.0747 348.436 46.1367 346.916 44.6199 345.408 43.1049 343.47 42.3474 341.108 42.3474L292.599 42.3474C290.24 42.3474 288.303 43.1049 286.785 44.6199 285.271 46.1367 284.515 48.0756 284.515 50.4313L284.515 99.698 222.869 48.1552C217.485 43.7757 211.083 41.5864 203.671 41.5864 196.26 41.5864 189.859 43.7757 184.47 48.1552L2.807 199.497C1.12298 200.842 0.199994 202.653 0.0283178 204.927-0.142474 207.199 0.446005 209.184 1.79552 210.867L17.4597 229.564C18.8092 231.079 20.5755 232.006 22.7657 232.345 24.7878 232.514 26.8098 231.923 28.8319 230.577L203.666 84.7914 378.501 230.576C379.852 231.751 381.617 232.338 383.807 232.338L384.567 232.338C386.753 232.005 388.516 231.072 389.873 229.561L405.539 210.866C406.886 209.18 407.476 207.198 407.301 204.923 407.128 202.655 406.202 200.845 404.521 199.497Z" fill="#FFFFFF" transform="matrix(1.001 0 0 1 0.539734 -35.0087)"/><path d="M203.666 107.023 58.393 226.785C58.393 226.954 58.3505 227.202 58.2656 227.541 58.1824 227.877 58.1381 228.122 58.1381 228.295L58.1381 349.567C58.1381 353.945 59.739 357.74 62.9398 360.936 66.1397 364.133 69.929 365.742 74.3085 365.742L171.323 365.742 171.323 268.721 236.009 268.721 236.009 365.745 333.023 365.745C337.402 365.745 341.196 364.14 344.392 360.936 347.593 357.744 349.199 353.946 349.199 349.567L349.199 228.295C349.199 227.623 349.107 227.115 348.944 226.785L203.666 107.023Z" fill="#FFFFFF" transform="matrix(1.001 0 0 1 2.62364 -41.2542)"/><path d="M404.521 199.497 349.193 153.514 349.193 50.4313C349.193 48.0747 348.436 46.1367 346.916 44.6199 345.408 43.1049 343.47 42.3474 341.108 42.3474L292.599 42.3474C290.24 42.3474 288.303 43.1049 286.785 44.6199 285.271 46.1367 284.515 48.0756 284.515 50.4313L284.515 99.698 222.869 48.1552C217.485 43.7757 211.083 41.5864 203.671 41.5864 196.26 41.5864 189.859 43.7757 184.47 48.1552L2.807 199.497C1.12298 200.842 0.199994 202.653 0.0283178 204.927-0.142474 207.199 0.446005 209.184 1.79552 210.867L17.4597 229.564C18.8092 231.079 20.5755 232.006 22.7657 232.345 24.7878 232.514 26.8098 231.923 28.8319 230.577L203.666 84.7914 378.501 230.576C379.852 231.751 381.617 232.338 383.807 232.338L384.567 232.338C386.753 232.005 388.516 231.072 389.873 229.561L405.539 210.866C406.886 209.18 407.476 207.198 407.301 204.923 407.128 202.655 406.202 200.845 404.521 199.497Z" fill="#FFFFFF" transform="matrix(1.001 0 0 1 2.62364 -41.2542)"/></g></svg>